<svg width="162" height="31" viewBox="0 0 162 31" fill="none" xmlns="http://www.w3.org/2000/svg">
<path d="M42.3711 2.10107H66.5006V5.50613L47.6767 25.582H66.5006V28.9871H42.3711V25.582L61.1951 5.50613H42.3711V2.10107Z" fill="#202D5E"/>
<path d="M74.2123 21.1769C74.2123 24.1294 75.6641 25.5812 78.6167 25.5812H86.4261C89.3786 25.5812 90.8304 24.1294 90.8304 21.1769V19.8722H94.3863V21.6746C94.3863 26.5314 91.9843 28.9825 87.0784 28.9825H77.9681C73.0132 28.9825 70.6074 26.5314 70.6074 21.6746V9.41187C70.6074 4.55504 73.0094 2.104 77.9681 2.104H87.0784C91.9843 2.104 94.3863 4.55881 94.3863 9.41187V16.8216H74.2123V21.1769ZM90.8304 14.0651V9.90962C90.8304 6.95706 89.3786 5.50529 86.4261 5.50529H78.6167C75.6641 5.50529 74.2123 6.95706 74.2123 9.90962V14.0651H90.8304Z" fill="#202D5E"/>
<path d="M120.57 28.9871V9.91046C120.57 6.9579 119.118 5.50613 116.165 5.50613H108.356C105.403 5.50613 103.952 6.9579 103.952 9.91046V28.9833H100.347V2.10107H103.952V4.70295C104.751 2.90049 106.806 2.10107 109.159 2.10107H116.818C121.724 2.10107 124.126 4.55589 124.126 9.40894V28.9833H120.57V28.9871Z" fill="#202D5E"/>
<path d="M20.1023 3.99717C19.5027 2.66229 18.1226 1.85156 16.6595 1.85156H1.61769C0.724 1.85156 0 2.57556 0 3.46925V4.7551H16.7425C17.2666 4.7551 17.4476 5.13973 17.5042 5.30564C17.557 5.47156 17.6399 5.89012 17.2176 6.19933L0 18.8769V22.4818L18.9371 8.53725C20.3625 7.48518 20.8489 5.6601 20.1023 3.99717Z" fill="#1AADDF"/>
<path d="M0.248596 26.8557C0.799137 28.315 2.24337 29.2427 3.80072 29.2427H18.835C19.7287 29.2427 20.4489 28.5187 20.4489 27.6287V26.3429H3.71022C3.18607 26.3429 3.00507 25.9583 2.94851 25.7923C2.89572 25.6264 2.81276 25.2079 3.23509 24.8987L20.4489 12.2211V8.61621L1.5156 22.5607C0.158096 23.56 -0.350966 25.2607 0.248596 26.8557Z" fill="#A1C15A"/>
<path d="M130.645 24.5786V15.6983V6.82178L138.205 15.6983L130.645 24.5786Z" fill="#1AADDF"/>
<path d="M31.5806 0H31.2412V31H31.5806V0Z" fill="#919191"/>
<path d="M151.958 14.4086L161.25 2.14209H156.721L150.382 10.7811C150.05 11.2336 150.05 11.8482 150.386 12.3007L151.958 14.4086Z" fill="#A1C15A"/>
<path d="M144.86 22.4101L147.809 18.4432L148.141 17.9945L148.985 16.8595C149.687 15.9168 149.687 14.6234 148.985 13.6807L148.152 12.5569L148.141 12.572L140.279 1.91943H135.799L145.901 15.2569L135.799 28.6433H140.279L144.875 22.4177L144.86 22.4101Z" fill="#A1C15A"/>
<path d="M152.399 17.4593L151.848 16.7202L150.525 18.5C150.102 19.0657 150.102 19.8425 150.517 20.4119L156.72 28.8661L161.132 28.8623L152.399 17.4593Z" fill="#A1C15A"/>
</svg>
