<?xml version="1.0" encoding="UTF-8"?>
<svg xmlns="http://www.w3.org/2000/svg" version="1.1" width="200" height="200" viewBox="0 0 200 200"><rect x="0" y="0" width="200" height="200" fill="#ffffff"/><g transform="scale(8)"><g transform="translate(0,0)"><path fill-rule="evenodd" d="M8 0L8 1L11 1L11 3L10 3L10 2L9 2L9 3L10 3L10 5L9 5L9 6L8 6L8 8L9 8L9 9L10 9L10 10L8 10L8 9L7 9L7 8L6 8L6 9L5 9L5 8L3 8L3 10L4 10L4 11L7 11L7 12L5 12L5 13L4 13L4 14L5 14L5 16L4 16L4 15L3 15L3 11L1 11L1 10L2 10L2 8L0 8L0 9L1 9L1 10L0 10L0 11L1 11L1 12L0 12L0 17L1 17L1 15L3 15L3 17L7 17L7 16L8 16L8 18L9 18L9 20L8 20L8 22L9 22L9 23L8 23L8 25L10 25L10 24L9 24L9 23L10 23L10 22L9 22L9 20L10 20L10 21L11 21L11 25L12 25L12 23L13 23L13 22L14 22L14 23L16 23L16 22L17 22L17 21L18 21L18 22L20 22L20 23L17 23L17 24L16 24L16 25L17 25L17 24L20 24L20 25L21 25L21 24L20 24L20 23L22 23L22 24L24 24L24 25L25 25L25 21L24 21L24 20L25 20L25 18L23 18L23 15L21 15L21 16L18 16L18 15L20 15L20 14L21 14L21 13L22 13L22 12L23 12L23 14L24 14L24 15L25 15L25 14L24 14L24 12L25 12L25 10L24 10L24 9L25 9L25 8L24 8L24 9L22 9L22 10L21 10L21 9L20 9L20 11L19 11L19 10L18 10L18 9L19 9L19 8L18 8L18 9L16 9L16 8L17 8L17 5L16 5L16 7L15 7L15 6L14 6L14 5L15 5L15 4L16 4L16 3L17 3L17 2L15 2L15 1L14 1L14 0L13 0L13 1L12 1L12 0ZM16 0L16 1L17 1L17 0ZM12 2L12 3L13 3L13 2ZM14 2L14 4L13 4L13 5L12 5L12 6L11 6L11 5L10 5L10 6L9 6L9 7L10 7L10 9L12 9L12 10L13 10L13 11L11 11L11 10L10 10L10 11L8 11L8 12L7 12L7 13L6 13L6 14L7 14L7 15L6 15L6 16L7 16L7 15L8 15L8 14L9 14L9 16L10 16L10 14L9 14L9 12L13 12L13 13L12 13L12 14L11 14L11 15L12 15L12 14L13 14L13 13L14 13L14 15L13 15L13 16L12 16L12 17L11 17L11 18L10 18L10 19L11 19L11 18L12 18L12 19L13 19L13 18L14 18L14 20L11 20L11 21L14 21L14 22L15 22L15 18L14 18L14 17L13 17L13 16L14 16L14 15L15 15L15 14L16 14L16 16L15 16L15 17L16 17L16 16L17 16L17 15L18 15L18 14L19 14L19 13L21 13L21 11L20 11L20 12L19 12L19 11L16 11L16 12L15 12L15 13L14 13L14 8L15 8L15 7L14 7L14 6L13 6L13 5L14 5L14 4L15 4L15 2ZM10 6L10 7L11 7L11 8L12 8L12 9L13 9L13 8L14 8L14 7L13 7L13 6L12 6L12 7L11 7L11 6ZM4 9L4 10L5 10L5 9ZM6 9L6 10L7 10L7 9ZM22 10L22 11L23 11L23 10ZM17 12L17 13L16 13L16 14L18 14L18 13L19 13L19 12ZM24 16L24 17L25 17L25 16ZM12 17L12 18L13 18L13 17ZM17 17L17 20L20 20L20 17ZM21 17L21 21L20 21L20 22L22 22L22 23L23 23L23 22L22 22L22 21L23 21L23 20L24 20L24 19L22 19L22 17ZM18 18L18 19L19 19L19 18ZM14 24L14 25L15 25L15 24ZM0 0L0 7L7 7L7 0ZM1 1L1 6L6 6L6 1ZM2 2L2 5L5 5L5 2ZM18 0L18 7L25 7L25 0ZM19 1L19 6L24 6L24 1ZM20 2L20 5L23 5L23 2ZM0 18L0 25L7 25L7 18ZM1 19L1 24L6 24L6 19ZM2 20L2 23L5 23L5 20Z" fill="#000000"/></g></g></svg>
