<?xml version="1.0" encoding="UTF-8"?>
<svg xmlns="http://www.w3.org/2000/svg" version="1.1" width="200" height="200" viewBox="0 0 200 200"><rect x="0" y="0" width="200" height="200" fill="#ffffff"/><g transform="scale(8)"><g transform="translate(0,0)"><path fill-rule="evenodd" d="M10 0L10 1L9 1L9 2L8 2L8 3L9 3L9 5L10 5L10 7L11 7L11 8L12 8L12 12L13 12L13 14L12 14L12 15L13 15L13 18L12 18L12 19L9 19L9 18L11 18L11 17L10 17L10 16L11 16L11 15L10 15L10 14L11 14L11 10L10 10L10 9L9 9L9 6L8 6L8 8L4 8L4 9L3 9L3 8L0 8L0 9L2 9L2 10L0 10L0 11L2 11L2 12L0 12L0 13L1 13L1 14L0 14L0 15L1 15L1 16L0 16L0 17L1 17L1 16L2 16L2 17L4 17L4 15L5 15L5 13L8 13L8 14L6 14L6 15L8 15L8 14L9 14L9 15L10 15L10 16L6 16L6 17L8 17L8 21L9 21L9 22L8 22L8 25L9 25L9 23L10 23L10 22L11 22L11 21L9 21L9 20L13 20L13 22L12 22L12 23L11 23L11 24L10 24L10 25L12 25L12 23L13 23L13 25L19 25L19 24L20 24L20 25L22 25L22 23L23 23L23 25L25 25L25 24L24 24L24 23L25 23L25 22L24 22L24 23L23 23L23 22L22 22L22 19L23 19L23 21L24 21L24 19L25 19L25 13L24 13L24 15L23 15L23 17L24 17L24 19L23 19L23 18L22 18L22 17L21 17L21 16L20 16L20 12L21 12L21 10L22 10L22 11L23 11L23 12L24 12L24 11L25 11L25 9L24 9L24 11L23 11L23 10L22 10L22 9L23 9L23 8L22 8L22 9L21 9L21 10L20 10L20 9L19 9L19 8L17 8L17 6L16 6L16 5L17 5L17 2L16 2L16 1L17 1L17 0L15 0L15 2L14 2L14 1L13 1L13 2L14 2L14 5L15 5L15 6L14 6L14 7L13 7L13 4L12 4L12 5L10 5L10 3L9 3L9 2L10 2L10 1L11 1L11 0ZM11 2L11 3L12 3L12 2ZM15 2L15 4L16 4L16 2ZM11 6L11 7L12 7L12 6ZM15 6L15 8L14 8L14 10L13 10L13 11L14 11L14 10L15 10L15 12L16 12L16 13L17 13L17 14L15 14L15 15L14 15L14 14L13 14L13 15L14 15L14 16L16 16L16 15L18 15L18 12L19 12L19 11L20 11L20 10L19 10L19 11L18 11L18 12L16 12L16 11L17 11L17 10L18 10L18 9L17 9L17 8L16 8L16 6ZM4 9L4 10L2 10L2 11L4 11L4 13L5 13L5 10L7 10L7 11L6 11L6 12L8 12L8 13L9 13L9 14L10 14L10 12L8 12L8 10L9 10L9 11L10 11L10 10L9 10L9 9L8 9L8 10L7 10L7 9ZM2 12L2 13L3 13L3 12ZM21 13L21 15L22 15L22 13ZM1 14L1 15L2 15L2 16L3 16L3 15L4 15L4 14L3 14L3 15L2 15L2 14ZM15 17L15 19L14 19L14 22L15 22L15 23L16 23L16 17ZM17 17L17 20L20 20L20 17ZM18 18L18 19L19 19L19 18ZM17 21L17 23L18 23L18 24L19 24L19 21ZM21 22L21 23L22 23L22 22ZM0 0L0 7L7 7L7 0ZM1 1L1 6L6 6L6 1ZM2 2L2 5L5 5L5 2ZM18 0L18 7L25 7L25 0ZM19 1L19 6L24 6L24 1ZM20 2L20 5L23 5L23 2ZM0 18L0 25L7 25L7 18ZM1 19L1 24L6 24L6 19ZM2 20L2 23L5 23L5 20Z" fill="#000000"/></g></g></svg>
