<?xml version="1.0" encoding="UTF-8"?>
<svg xmlns="http://www.w3.org/2000/svg" version="1.1" width="200" height="200" viewBox="0 0 200 200"><rect x="0" y="0" width="200" height="200" fill="#ffffff"/><g transform="scale(8)"><g transform="translate(0,0)"><path fill-rule="evenodd" d="M8 0L8 1L10 1L10 0ZM14 0L14 2L11 2L11 4L10 4L10 3L9 3L9 2L8 2L8 5L9 5L9 6L8 6L8 7L9 7L9 8L8 8L8 9L7 9L7 8L6 8L6 9L5 9L5 10L4 10L4 8L0 8L0 11L1 11L1 10L2 10L2 14L1 14L1 15L0 15L0 16L1 16L1 15L2 15L2 17L4 17L4 16L5 16L5 15L2 15L2 14L3 14L3 11L4 11L4 12L6 12L6 13L8 13L8 12L9 12L9 14L6 14L6 15L7 15L7 16L6 16L6 17L7 17L7 16L8 16L8 18L9 18L9 19L10 19L10 20L9 20L9 21L8 21L8 25L9 25L9 23L10 23L10 25L11 25L11 23L12 23L12 24L13 24L13 25L14 25L14 24L15 24L15 25L16 25L16 23L15 23L15 22L14 22L14 23L13 23L13 22L12 22L12 21L11 21L11 18L12 18L12 17L13 17L13 18L14 18L14 21L15 21L15 20L16 20L16 21L18 21L18 23L19 23L19 24L18 24L18 25L20 25L20 23L21 23L21 22L22 22L22 25L25 25L25 24L23 24L23 23L24 23L24 22L25 22L25 20L24 20L24 19L25 19L25 17L23 17L23 16L22 16L22 18L24 18L24 19L23 19L23 22L22 22L22 20L21 20L21 16L17 16L17 15L16 15L16 16L13 16L13 13L14 13L14 12L16 12L16 14L17 14L17 12L18 12L18 14L19 14L19 13L20 13L20 14L21 14L21 15L22 15L22 14L21 14L21 13L23 13L23 11L24 11L24 9L25 9L25 8L24 8L24 9L23 9L23 8L20 8L20 9L19 9L19 11L18 11L18 10L16 10L16 11L15 11L15 10L14 10L14 11L13 11L13 8L12 8L12 9L11 9L11 12L12 12L12 16L11 16L11 15L9 15L9 14L11 14L11 13L10 13L10 12L9 12L9 11L8 11L8 10L10 10L10 9L9 9L9 8L10 8L10 7L11 7L11 6L10 6L10 5L12 5L12 4L14 4L14 5L16 5L16 7L15 7L15 6L14 6L14 7L15 7L15 8L14 8L14 9L15 9L15 8L17 8L17 9L18 9L18 8L17 8L17 5L16 5L16 4L17 4L17 2L16 2L16 4L15 4L15 3L14 3L14 2L15 2L15 0ZM9 6L9 7L10 7L10 6ZM12 6L12 7L13 7L13 6ZM6 9L6 10L5 10L5 11L6 11L6 12L7 12L7 11L6 11L6 10L7 10L7 9ZM20 9L20 10L21 10L21 11L19 11L19 12L21 12L21 11L23 11L23 9L22 9L22 10L21 10L21 9ZM12 11L12 12L13 12L13 11ZM16 11L16 12L17 12L17 11ZM24 13L24 14L25 14L25 13ZM9 17L9 18L11 18L11 17ZM17 17L17 20L20 20L20 17ZM18 18L18 19L19 19L19 18ZM10 21L10 22L11 22L11 21ZM19 21L19 22L20 22L20 21ZM0 0L0 7L7 7L7 0ZM1 1L1 6L6 6L6 1ZM2 2L2 5L5 5L5 2ZM18 0L18 7L25 7L25 0ZM19 1L19 6L24 6L24 1ZM20 2L20 5L23 5L23 2ZM0 18L0 25L7 25L7 18ZM1 19L1 24L6 24L6 19ZM2 20L2 23L5 23L5 20Z" fill="#000000"/></g></g></svg>
