<?xml version="1.0" encoding="UTF-8"?>
<svg xmlns="http://www.w3.org/2000/svg" version="1.1" width="200" height="200" viewBox="0 0 200 200"><rect x="0" y="0" width="200" height="200" fill="#ffffff"/><g transform="scale(8)"><g transform="translate(0,0)"><path fill-rule="evenodd" d="M8 0L8 1L11 1L11 3L10 3L10 2L9 2L9 3L10 3L10 5L9 5L9 6L8 6L8 8L9 8L9 9L10 9L10 10L8 10L8 9L7 9L7 8L6 8L6 9L7 9L7 10L5 10L5 11L7 11L7 12L4 12L4 13L7 13L7 12L8 12L8 11L10 11L10 10L11 10L11 11L12 11L12 12L9 12L9 13L8 13L8 14L1 14L1 12L2 12L2 13L3 13L3 11L4 11L4 9L5 9L5 8L3 8L3 10L2 10L2 8L0 8L0 10L2 10L2 11L1 11L1 12L0 12L0 17L1 17L1 15L2 15L2 17L4 17L4 15L5 15L5 17L8 17L8 18L10 18L10 19L9 19L9 20L8 20L8 22L10 22L10 25L11 25L11 24L13 24L13 23L14 23L14 25L15 25L15 23L16 23L16 22L17 22L17 21L18 21L18 22L20 22L20 23L22 23L22 24L24 24L24 25L25 25L25 21L24 21L24 20L25 20L25 18L23 18L23 15L21 15L21 13L22 13L22 12L23 12L23 14L24 14L24 15L25 15L25 14L24 14L24 12L25 12L25 10L24 10L24 9L25 9L25 8L24 8L24 9L22 9L22 10L21 10L21 9L20 9L20 10L18 10L18 9L19 9L19 8L18 8L18 9L16 9L16 8L17 8L17 5L16 5L16 7L15 7L15 6L14 6L14 5L15 5L15 4L16 4L16 3L17 3L17 2L15 2L15 1L14 1L14 0L13 0L13 1L12 1L12 0ZM16 0L16 1L17 1L17 0ZM12 2L12 3L13 3L13 2ZM14 2L14 4L13 4L13 5L14 5L14 4L15 4L15 2ZM10 5L10 6L9 6L9 7L10 7L10 9L13 9L13 10L12 10L12 11L13 11L13 13L12 13L12 14L10 14L10 13L9 13L9 14L8 14L8 15L10 15L10 16L11 16L11 15L12 15L12 17L11 17L11 18L12 18L12 20L11 20L11 19L10 19L10 20L9 20L9 21L10 21L10 22L11 22L11 21L13 21L13 22L12 22L12 23L13 23L13 22L14 22L14 23L15 23L15 20L13 20L13 18L14 18L14 19L15 19L15 18L14 18L14 17L13 17L13 16L14 16L14 15L15 15L15 14L16 14L16 16L15 16L15 17L16 17L16 16L17 16L17 14L16 14L16 13L17 13L17 12L19 12L19 13L18 13L18 14L19 14L19 15L18 15L18 16L19 16L19 15L20 15L20 14L19 14L19 13L21 13L21 12L20 12L20 11L18 11L18 10L17 10L17 11L16 11L16 12L15 12L15 13L14 13L14 8L15 8L15 7L14 7L14 6L13 6L13 7L14 7L14 8L12 8L12 6L11 6L11 5ZM10 6L10 7L11 7L11 6ZM7 10L7 11L8 11L8 10ZM22 10L22 11L23 11L23 10ZM13 13L13 14L12 14L12 15L14 15L14 13ZM6 15L6 16L7 16L7 15ZM24 16L24 17L25 17L25 16ZM12 17L12 18L13 18L13 17ZM17 17L17 20L20 20L20 17ZM21 17L21 21L20 21L20 22L22 22L22 23L23 23L23 22L22 22L22 21L23 21L23 20L24 20L24 19L22 19L22 17ZM18 18L18 19L19 19L19 18ZM10 20L10 21L11 21L11 20ZM8 23L8 25L9 25L9 23ZM17 23L17 24L16 24L16 25L17 25L17 24L18 24L18 25L19 25L19 23ZM20 24L20 25L21 25L21 24ZM0 0L0 7L7 7L7 0ZM1 1L1 6L6 6L6 1ZM2 2L2 5L5 5L5 2ZM18 0L18 7L25 7L25 0ZM19 1L19 6L24 6L24 1ZM20 2L20 5L23 5L23 2ZM0 18L0 25L7 25L7 18ZM1 19L1 24L6 24L6 19ZM2 20L2 23L5 23L5 20Z" fill="#000000"/></g></g></svg>
